<?xml version="1.0" standalone="no"?>
<!DOCTYPE svg PUBLIC "-//W3C//DTD SVG 20010904//EN"
 "http://www.w3.org/TR/2001/REC-SVG-20010904/DTD/svg10.dtd">
<svg version="1.0" xmlns="http://www.w3.org/2000/svg"
 width="313.000000pt" height="259.000000pt" viewBox="0 0 313.000000 259.000000"
 preserveAspectRatio="xMidYMid meet">

<g transform="translate(0.000000,259.000000) scale(0.100000,-0.100000)"
fill="#fff" stroke="none">
<path d="M2570 2563 c-36 -13 -89 -57 -100 -83 -12 -29 -44 -40 -124 -40 -62
0 -240 -29 -345 -56 -677 -175 -1400 -671 -1760 -1207 -158 -235 -240 -493
-211 -664 34 -203 163 -331 395 -394 106 -29 362 -32 505 -6 261 48 537 142
775 266 55 29 91 49 80 45 -11 -3 -66 -22 -122 -40 -190 -64 -538 -124 -718
-124 -397 0 -647 213 -621 531 8 97 35 179 98 301 80 154 204 314 374 484 296
296 688 529 1141 679 70 24 121 35 136 31 38 -9 206 -192 261 -284 58 -98 112
-237 132 -339 18 -96 18 -310 0 -405 -25 -130 -71 -245 -145 -360 l-36 -58
-103 0 -104 0 -61 -54 c-112 -96 -235 -160 -375 -192 -120 -28 -118 -17 23 86
71 52 186 137 255 188 l125 93 -154 -3 -155 -3 -145 -192 c-80 -106 -150 -193
-156 -193 -5 0 -19 14 -30 30 -11 16 -76 104 -145 194 l-125 166 -154 0 -154
0 26 -20 c14 -11 30 -20 35 -20 6 0 12 -4 14 -8 2 -5 55 -46 118 -93 336 -249
317 -234 288 -237 -86 -10 -322 93 -442 194 l-76 64 -115 0 c-137 0 -135 5
-25 -113 174 -186 388 -295 653 -333 188 -27 369 -3 538 70 268 116 472 316
579 564 59 137 81 238 87 392 6 155 -9 256 -58 398 -56 160 -123 266 -257 404
-69 71 -80 87 -65 92 27 8 189 34 259 42 61 6 61 6 68 -22 23 -91 140 -148
233 -113 15 5 45 26 65 46 l37 36 43 -26 c266 -157 283 -512 43 -904 -14 -24
-24 -43 -21 -43 8 0 83 124 125 208 70 139 103 252 109 368 5 114 -6 180 -44
261 -32 68 -115 151 -189 189 -42 22 -55 34 -55 52 0 28 -31 91 -57 114 -42
38 -126 58 -173 41z"/>
<path d="M1355 2533 c-127 -12 -299 -59 -398 -109 -68 -35 -198 -126 -258
-181 -85 -79 -170 -196 -230 -317 -27 -55 -49 -105 -49 -110 0 -5 26 16 58 46
235 223 671 501 1006 641 l58 24 -38 6 c-39 7 -75 7 -149 0z"/>
<path d="M1520 2461 c-330 -138 -641 -329 -925 -567 -158 -132 -203 -176 -211
-204 -5 -19 15 -5 87 61 333 303 713 547 1092 699 65 27 121 51 124 54 4 3 -7
6 -23 6 -16 0 -81 -22 -144 -49z"/>
<path d="M1755 2467 c-226 -72 -627 -274 -830 -419 -299 -214 -565 -452 -565
-505 0 -9 43 27 102 86 252 253 549 465 897 641 122 62 324 147 424 179 20 7
37 14 37 16 0 9 -39 10 -65 2z"/>
<path d="M1151 1680 c-62 -74 -116 -170 -148 -262 -13 -38 -23 -71 -21 -73 2
-1 22 -6 44 -10 40 -6 42 -5 65 32 40 66 146 179 238 255 l43 37 -81 40 c-44
23 -83 41 -85 41 -3 0 -28 -27 -55 -60z"/>
<path d="M1581 1700 c-46 -22 -80 -44 -75 -49 5 -4 31 -25 58 -47 69 -54 127
-116 188 -202 53 -72 53 -72 93 -67 21 3 41 8 44 10 8 9 -52 163 -90 227 -22
37 -61 90 -87 118 l-47 51 -84 -41z"/>
<path d="M1381 1575 c-71 -56 -119 -106 -182 -184 l-59 -74 113 -38 c63 -20
129 -45 146 -54 31 -16 34 -15 134 24 56 22 123 45 150 51 26 7 47 15 47 19
-1 36 -261 291 -296 291 -5 0 -29 -16 -53 -35z"/>
<path d="M710 1254 c-18 -45 -12 -126 13 -174 l22 -45 73 0 73 0 2 123 2 122
-88 0 c-85 0 -88 -1 -97 -26z"/>
<path d="M1980 1155 l0 -125 73 0 c69 0 73 1 89 28 29 48 39 115 27 172 l-11
50 -89 0 -89 0 0 -125z"/>
<path d="M967 1263 c-4 -3 -7 -34 -7 -67 l0 -61 30 59 c17 32 30 63 30 67 0
10 -44 12 -53 2z"/>
<path d="M1852 1262 c45 -111 78 -157 64 -91 -3 17 -6 47 -6 65 0 31 -2 34
-31 34 -17 0 -29 -4 -27 -8z"/>
<path d="M1088 1228 c-19 -29 -88 -181 -88 -194 0 -2 34 -4 75 -4 70 0 78 2
123 35 27 19 74 50 105 68 l57 35 -68 25 c-38 14 -88 30 -113 37 -24 6 -51 13
-60 16 -10 3 -23 -5 -31 -18z"/>
<path d="M1655 1216 c-55 -18 -108 -37 -117 -41 -14 -5 5 -22 86 -76 l105 -69
71 0 c69 0 71 1 65 23 -16 52 -89 197 -99 197 -6 -1 -56 -16 -111 -34z"/>
</g>
</svg>
