<?xml version="1.0" encoding="UTF-8" standalone="no"?><svg xmlns="http://www.w3.org/2000/svg" xmlns:xlink="http://www.w3.org/1999/xlink" contentScriptType="application/ecmascript" contentStyleType="text/css" height="669px" preserveAspectRatio="none" style="width:856px;height:669px;" version="1.1" viewBox="0 0 856 669" width="856px" zoomAndPan="magnify"><defs><filter height="300%" id="f1mho98fl1suoc" width="300%" x="-1" y="-1"><feGaussianBlur result="blurOut" stdDeviation="2.0"/><feColorMatrix in="blurOut" result="blurOut2" type="matrix" values="0 0 0 0 0 0 0 0 0 0 0 0 0 0 0 0 0 0 .4 0"/><feOffset dx="4.0" dy="4.0" in="blurOut2" result="blurOut3"/><feBlend in="SourceGraphic" in2="blurOut3" mode="normal"/></filter></defs><g><!--MD5=[327d8b0cc9017ef0d2f4054fa6547e20]
entity Manager--><ellipse cx="129" cy="213.43" fill="#FEFECE" filter="url(#f1mho98fl1suoc)" rx="8" ry="8" style="stroke:#A80036;stroke-width:1.5;"/><path d="M129,221.43 L129,248.43 M116,229.43 L142,229.43 M129,248.43 L116,263.43 M129,248.43 L142,263.43 " fill="none" filter="url(#f1mho98fl1suoc)" style="stroke:#A80036;stroke-width:1.5;"/><text fill="#000000" font-family="sans-serif" font-size="14" lengthAdjust="spacing" textLength="60" x="99" y="281.9251">Manager</text><!--MD5=[fee662a292a0353a69bd162820bae93b]
entity User--><ellipse cx="22" cy="430.43" fill="#FEFECE" filter="url(#f1mho98fl1suoc)" rx="8" ry="8" style="stroke:#A80036;stroke-width:1.5;"/><path d="M22,438.43 L22,465.43 M9,446.43 L35,446.43 M22,465.43 L9,480.43 M22,465.43 L35,480.43 " fill="none" filter="url(#f1mho98fl1suoc)" style="stroke:#A80036;stroke-width:1.5;"/><text fill="#000000" font-family="sans-serif" font-size="14" lengthAdjust="spacing" textLength="32" x="6" y="498.9251">User</text><ellipse cx="747.5594" cy="447.6419" fill="#FEFECE" filter="url(#f1mho98fl1suoc)" rx="64.0594" ry="15.2119" style="stroke:#A80036;stroke-width:1.5;"/><text fill="#000000" font-family="sans-serif" font-size="14" lengthAdjust="spacing" textLength="76" x="706.5594" y="451.3894">Đăng nhập</text><ellipse cx="514.4496" cy="449.4199" fill="#FEFECE" filter="url(#f1mho98fl1suoc)" rx="105.4496" ry="23.4899" style="stroke:#A80036;stroke-width:1.5;"/><text fill="#000000" font-family="sans-serif" font-size="14" lengthAdjust="spacing" textLength="176" x="426.4496" y="452.2666">Quản lý thông tin cá nhân</text><ellipse cx="514.6693" cy="553.5639" fill="#FEFECE" filter="url(#f1mho98fl1suoc)" rx="93.6693" ry="21.1339" style="stroke:#A80036;stroke-width:1.5;"/><text fill="#000000" font-family="sans-serif" font-size="14" lengthAdjust="spacing" textLength="150" x="439.6693" y="556.4105">Xem lịch sử công việc</text><ellipse cx="747.42" cy="69.414" fill="#FEFECE" filter="url(#f1mho98fl1suoc)" rx="65.42" ry="15.484" style="stroke:#A80036;stroke-width:1.5;"/><text fill="#000000" font-family="sans-serif" font-size="14" lengthAdjust="spacing" textLength="80" x="704.42" y="73.1616">Chấm công</text><ellipse cx="299.3735" cy="639.2047" fill="#FEFECE" filter="url(#f1mho98fl1suoc)" rx="79.3735" ry="18.2747" style="stroke:#A80036;stroke-width:1.5;"/><text fill="#000000" font-family="sans-serif" font-size="14" lengthAdjust="spacing" textLength="117" x="238.9676" y="642.6548">Xem phiếu lương</text><ellipse cx="747.2599" cy="142.282" fill="#FEFECE" filter="url(#f1mho98fl1suoc)" rx="97.2599" ry="21.852" style="stroke:#A80036;stroke-width:1.5;"/><text fill="#000000" font-family="sans-serif" font-size="14" lengthAdjust="spacing" textLength="158" x="668.2599" y="145.1287">Quản lý cơ cấu tổ chức</text><ellipse cx="747.4455" cy="218.6191" fill="#FEFECE" filter="url(#f1mho98fl1suoc)" rx="81.4455" ry="18.6891" style="stroke:#A80036;stroke-width:1.5;"/><text fill="#000000" font-family="sans-serif" font-size="14" lengthAdjust="spacing" textLength="122" x="685.3109" y="221.839">Quản lý nhân viên</text><ellipse cx="747.5118" cy="293.3324" fill="#FEFECE" filter="url(#f1mho98fl1suoc)" rx="95.0118" ry="21.4024" style="stroke:#A80036;stroke-width:1.5;"/><text fill="#000000" font-family="sans-serif" font-size="14" lengthAdjust="spacing" textLength="153" x="671.0118" y="296.179">Quản lý vị trí công việc</text><ellipse cx="747.5625" cy="365.4425" fill="#FEFECE" filter="url(#f1mho98fl1suoc)" rx="63.0625" ry="15.0125" style="stroke:#A80036;stroke-width:1.5;"/><text fill="#000000" font-family="sans-serif" font-size="14" lengthAdjust="spacing" textLength="73" x="708.0625" y="369.1901">Tính lương</text><!--MD5=[db25c41ae6377e017d9f6f1472547e10]
reverse link User to Manager--><path d="M46.8,412.25 C65.38,373.84 90.89,321.12 108.33,285.08 " fill="none" id="User-backto-Manager" style="stroke:#A80036;stroke-width:1.0;"/><polygon fill="none" points="53.06,415.38,38.04,430.34,40.45,409.29,53.06,415.38" style="stroke:#A80036;stroke-width:1.0;"/><!--MD5=[fcee038dd04f7f7d3106a44f07285def]
link User to Đăng nhập--><path d="M38.35,464.35 C47.02,465.87 58.07,467.57 68,468.43 C312.44,489.49 376.01,500.18 620,474.43 C648.59,471.41 680.21,464.66 704.69,458.67 " fill="none" id="User-Đăng nhập" style="stroke:#A80036;stroke-width:1.0;"/><!--MD5=[3993d9e95f0abc6a798666edcb033b8c]
link User to Quản lý thông tin cá nhân--><path d="M38.22,461.06 C93.52,459.7 287,454.97 409.39,451.98 " fill="none" id="User-Quản lý thông tin cá nhân" style="stroke:#A80036;stroke-width:1.0;"/><!--MD5=[ca8c67641a087dc87f2fd8977da77f7f]
link Quản lý thông tin cá nhân to Đăng nhập--><path d="M620.19,448.52 C639.94,448.35 660.11,448.18 678.37,448.02 " fill="none" id="Quản lý thông tin cá nhân-to-Đăng nhập" style="stroke:#A80036;stroke-width:1.0;stroke-dasharray:7.0,7.0;"/><polygon fill="#A80036" points="683.47,447.98,674.436,444.0573,678.4702,448.0229,674.5046,452.057,683.47,447.98" style="stroke:#A80036;stroke-width:1.0;"/><!--MD5=[ca7098720e3e999cb66e26f223df05e1]
link User to Xem lịch sử công việc--><path d="M38.04,491.84 C45.4,503.44 55.43,515.52 68,522.43 C185.39,586.92 347.21,578.49 440.05,566.19 " fill="none" id="User-Xem lịch sử công việc" style="stroke:#A80036;stroke-width:1.0;"/><!--MD5=[1e56810f0e553358699e6f03b3acf19e]
link Xem lịch sử công việc to Đăng nhập--><path d="M577.46,537.79 C591.68,533.46 606.56,528.3 620,522.43 C657.16,506.2 696.9,481.24 721.71,464.63 " fill="none" id="Xem lịch sử công việc-to-Đăng nhập" style="stroke:#A80036;stroke-width:1.0;stroke-dasharray:7.0,7.0;"/><polygon fill="#A80036" points="725.87,461.84,716.1735,463.5656,721.7274,464.6398,720.6532,470.1937,725.87,461.84" style="stroke:#A80036;stroke-width:1.0;"/><!--MD5=[bfe89c5945a291e53d6d3424dd24ab5c]
link User to Chấm công--><path d="M24.2,420.86 C27.94,362.72 42.63,255.19 99,186.43 C246.93,6 570.99,39 695.95,59.72 " fill="none" id="User-Chấm công" style="stroke:#A80036;stroke-width:1.0;"/><!--MD5=[9c3b5d23de7b6d1b59f6e428167c3cd9]
link Chấm công to Đăng nhập--><path d="M695.07,78.81 C679.16,83.72 662.58,91.16 650,102.43 C434.22,295.7 513.75,358.16 529,378.93 C562.96,425.16 628.05,441.04 678.4,446.09 " fill="none" id="Chấm công-to-Đăng nhập" style="stroke:#A80036;stroke-width:1.0;stroke-dasharray:7.0,7.0;"/><polygon fill="#A80036" points="683.53,446.58,674.9341,441.7727,678.551,446.1222,674.2015,449.7391,683.53,446.58" style="stroke:#A80036;stroke-width:1.0;"/><text fill="#000000" font-family="sans-serif" font-size="13" lengthAdjust="spacing" textLength="45" x="492" y="374.9969">include</text><!--MD5=[9c3b5d23de7b6d1b59f6e428167c3cd9]
link Chấm công to Đăng nhập--><path d="M695.07,78.81 C679.16,83.72 662.58,91.16 650,102.43 C434.22,295.7 513.75,358.16 529,378.93 C562.96,425.16 628.05,441.04 678.4,446.09 " fill="none" id="Chấm công-to-Đăng nhập-1" style="stroke:#A80036;stroke-width:1.0;stroke-dasharray:7.0,7.0;"/><polygon fill="#A80036" points="683.53,446.58,674.9341,441.7727,678.551,446.1222,674.2015,449.7391,683.53,446.58" style="stroke:#A80036;stroke-width:1.0;"/><text fill="#000000" font-family="sans-serif" font-size="13" lengthAdjust="spacing" textLength="45" x="492" y="374.9969">include</text><!--MD5=[e47444b91dfcba0db5e361d5becb1991]
link User to Xem phiếu lương--><path d="M26.29,502.23 C30.9,531.83 41.87,570.53 68,593.43 C109.58,629.87 171.72,640.62 221.01,642.67 " fill="none" id="User-Xem phiếu lương" style="stroke:#A80036;stroke-width:1.0;"/><!--MD5=[1a8a411be4d8c15d075fadf1c5c92014]
link Xem phiếu lương to Đăng nhập--><path d="M369.88,648.09 C437.86,653.23 542.29,651.96 620,609.43 C679.92,576.64 720.95,502.32 737.85,466.9 " fill="none" id="Xem phiếu lương-to-Đăng nhập" style="stroke:#A80036;stroke-width:1.0;stroke-dasharray:7.0,7.0;"/><polygon fill="#A80036" points="739.98,462.38,732.5315,468.8236,737.8531,466.9051,739.7716,472.2267,739.98,462.38" style="stroke:#A80036;stroke-width:1.0;"/><text fill="#000000" font-family="sans-serif" font-size="13" lengthAdjust="spacing" textLength="45" x="492" y="605.4969">include</text><!--MD5=[a9a09e772794461b99ee15bb1a46c195]
link Manager to Quản lý cơ cấu tổ chức--><path d="M159.11,228.83 C168.46,224.31 178.98,219.72 189,216.43 C202.33,212.05 206.15,212.66 220,210.43 C374.23,185.57 555.04,163.82 659.62,151.96 " fill="none" id="Manager-Quản lý cơ cấu tổ chức" style="stroke:#A80036;stroke-width:1.0;"/><!--MD5=[39100e5f2379426d20855ce02c7aaf08]
link Quản lý cơ cấu tổ chức to Đăng nhập--><path d="M686.34,159.65 C608.81,184.96 489.68,237.52 529,312.93 C563.71,379.51 647.44,416.72 700.59,434.38 " fill="none" id="Quản lý cơ cấu tổ chức-to-Đăng nhập" style="stroke:#A80036;stroke-width:1.0;stroke-dasharray:7.0,7.0;"/><polygon fill="#A80036" points="705.64,436.03,698.3309,429.4287,700.8881,434.4746,695.8422,437.0318,705.64,436.03" style="stroke:#A80036;stroke-width:1.0;"/><text fill="#000000" font-family="sans-serif" font-size="13" lengthAdjust="spacing" textLength="45" x="492" y="308.9969">include</text><!--MD5=[8d5128c87c0e250df42e5602015599a3]
link Manager to Quản lý nhân viên--><path d="M159.32,242.99 C210.15,240.5 317.92,235.31 409,231.43 C497.17,227.68 598.32,223.84 666.71,221.32 " fill="none" id="Manager-Quản lý nhân viên" style="stroke:#A80036;stroke-width:1.0;"/><!--MD5=[ae6fbc6f71cbe97ab0c63db9e8b36892]
link Quản lý nhân viên to Đăng nhập--><path d="M679.37,228.73 C627.81,240.56 560.65,265.58 529,317.93 C488.04,385.69 612.03,422.1 689.73,437.81 " fill="none" id="Quản lý nhân viên-to-Đăng nhập" style="stroke:#A80036;stroke-width:1.0;stroke-dasharray:7.0,7.0;"/><polygon fill="#A80036" points="694.78,438.82,686.7424,433.1281,689.8776,437.8367,685.1691,440.9719,694.78,438.82" style="stroke:#A80036;stroke-width:1.0;"/><text fill="#000000" font-family="sans-serif" font-size="13" lengthAdjust="spacing" textLength="45" x="492" y="330.9969">include</text><!--MD5=[bb9b1930947a3d442f339b3a9d5cd121]
link Manager to Quản lý vị trí công việc--><path d="M159.08,247.68 C168.61,248.67 179.25,249.69 189,250.43 C380.25,265.03 429.31,251.8 620,272.43 C637.37,274.31 655.99,277.01 673.45,279.85 " fill="none" id="Manager-Quản lý vị trí công việc" style="stroke:#A80036;stroke-width:1.0;"/><!--MD5=[cc14c2e2fcc8c32c419516c39343a034]
link Quản lý vị trí công việc to Đăng nhập--><path d="M655.32,288.07 C610,290.82 558.83,303.08 529,339.93 C481.76,398.29 605.23,427.41 685.28,439.78 " fill="none" id="Quản lý vị trí công việc-to-Đăng nhập" style="stroke:#A80036;stroke-width:1.0;stroke-dasharray:7.0,7.0;"/><polygon fill="#A80036" points="690.49,440.57,682.1994,435.2534,685.5476,439.8129,680.9881,443.1612,690.49,440.57" style="stroke:#A80036;stroke-width:1.0;"/><text fill="#000000" font-family="sans-serif" font-size="13" lengthAdjust="spacing" textLength="45" x="492" y="352.9969">include</text><!--MD5=[71a3a6e25b8f20dc38374322d69bc7e9]
link Manager to Chấm công--><path d="M159,213.62 C175.32,198.5 196.99,181.79 220,173.43 C382.89,114.28 587.02,86.18 686.47,75.24 " fill="none" id="Manager-Chấm công" style="stroke:#A80036;stroke-width:1.0;"/><!--MD5=[2176c3d04cfd66415c6ae4e9c965a635]
link Manager to Tính lương--><path d="M159.27,264.32 C208.31,296.31 311.34,357.89 409,380.43 C510.73,403.9 634.16,387.48 699.93,375.3 " fill="none" id="Manager-Tính lương" style="stroke:#A80036;stroke-width:1.0;"/><!--MD5=[d10df4d3ecc867418eec64e7a7528bd8]
link Tính lương to Đăng nhập--><path d="M747.5,380.65 C747.5,393.8 747.5,412.91 747.5,427.31 " fill="none" id="Tính lương-to-Đăng nhập" style="stroke:#A80036;stroke-width:1.0;stroke-dasharray:7.0,7.0;"/><polygon fill="#A80036" points="747.5,432.39,751.5,423.39,747.5,427.39,743.5,423.39,747.5,432.39" style="stroke:#A80036;stroke-width:1.0;"/><text fill="#000000" font-family="sans-serif" font-size="13" lengthAdjust="spacing" textLength="45" x="713.5" y="410.9969">include</text><!--MD5=[24c6248a2b705a71dd2eeea1099ffead]
@startuml "Tổng quan"
left to right direction
skinparam packageStyle rectangle
actor Manager
actor User

User <|- - Manager

User - - - (Đăng nhập)

User - - - (Quản lý thông tin cá nhân)
(Quản lý thông tin cá nhân) .> (Đăng nhập) : include

User - - - (Xem lịch sử công việc)
(Xem lịch sử công việc) .> (Đăng nhập) : include

User - - - (Chấm công)
(Chấm công) .> (Đăng nhập) : include

User - - - (Xem phiếu lương)
(Xem phiếu lương) .> (Đăng nhập) : include

Manager - - - (Quản lý cơ cấu tổ chức)
(Quản lý cơ cấu tổ chức) .> (Đăng nhập) : include

Manager - - - (Quản lý nhân viên)
(Quản lý nhân viên) .> (Đăng nhập) : include

Manager - - - (Quản lý vị trí công việc)
(Quản lý vị trí công việc) .> (Đăng nhập) : include

Manager - - - (Chấm công)
(Chấm công) .> (Đăng nhập) : include

Manager - - - (Tính lương)
(Tính lương) .> (Đăng nhập) : include

@enduml

PlantUML version 1.2021.00(Sun Jan 10 17:25:05 ICT 2021)
(GPL source distribution)
Java Runtime: OpenJDK Runtime Environment
JVM: OpenJDK 64-Bit Server VM
Default Encoding: UTF-8
Language: en
Country: US
--></g></svg>